<svg width="1250" height="844" viewBox="0 0 1250 844" fill="none" xmlns="http://www.w3.org/2000/svg">
<path d="M706.583 353.281C706.583 353.281 410.856 410.836 353.302 706.562C353.302 706.562 295.749 410.835 0.0209961 353.281C295.749 295.729 353.304 0.002 353.302 0C410.856 295.729 706.583 353.281 706.583 353.281ZM780.831 154.008C780.831 154.008 767.383 223.104 698.289 236.551C767.383 249.998 780.831 319.092 780.831 319.092C794.278 249.998 863.373 236.551 863.373 236.551C863.373 236.551 794.278 223.104 780.831 154.008ZM652.208 533.576C652.208 533.576 626.923 663.502 496.996 688.787C626.923 714.074 652.208 844 652.208 844C677.494 714.074 807.421 688.787 807.421 688.787C807.421 688.787 677.494 663.502 652.208 533.576ZM1125.14 443.309L1090.06 318.469L1054.98 443.309L930.137 478.389L1054.98 513.471L1090.06 638.311L1125.14 513.471L1249.98 478.389L1125.14 443.309Z" fill="#230056"/>
</svg>
